<?xml version="1.0" encoding="UTF-8" standalone="no"?>
<svg width="76px" height="90px" viewBox="0 0 76 90" version="1.1" xmlns="http://www.w3.org/2000/svg" xmlns:xlink="http://www.w3.org/1999/xlink" xmlns:sketch="http://www.bohemiancoding.com/sketch/ns">
    <!-- Generator: Sketch 3.5.2 (25235) - http://www.bohemiancoding.com/sketch -->
    <title>shield-logo</title>
    <desc>Created with Sketch.</desc>
    <defs></defs>
    <g id="Welcome" stroke="none" stroke-width="1" fill="none" fill-rule="evenodd" sketch:type="MSPage">
        <g id="Desktop-HD" sketch:type="MSArtboardGroup" transform="translate(-130.000000, -117.000000)">
            <g id="AIO-logo" sketch:type="MSLayerGroup" transform="translate(130.000000, 117.000000)">
                <path d="M0.364454545,5.39904621 L0.364454545,46.9394935 C0.364454545,81.3246279 37.9844545,89.8662236 37.9844545,89.8662236 L37.9844545,0.811273369 C24.4193182,0.811273369 11.6219545,2.47035203 0.364454545,5.39904621" id="Fill-1" fill="#3B8C6D" sketch:type="MSShapeGroup"></path>
                <path d="M37.9844545,0.811273369 L37.9844545,89.8662236 C37.9844545,89.8662236 75.6070455,81.3246279 75.6070455,46.9394935 L75.6070455,5.39904621 C64.3495455,2.47035203 51.5513182,0.811273369 37.9844545,0.811273369" id="Fill-2" fill="#47A57F" sketch:type="MSShapeGroup"></path>
                <path d="M41.5961818,21.7178949 C37.7763182,18.9221672 33.0746818,17.6208113 26.8055455,17.6208113 L12.806,17.6208113 L12.806,49.7515203 L24.1749091,49.7515203 L24.1749091,60.9387203 L26.8055455,60.9387203 C33.0781364,60.9387203 37.7771818,59.6365065 41.6065455,56.8356317 C47.0370909,52.8209016 50.2791818,46.2583619 50.2791818,39.2814815 C50.2791818,32.3011697 47.0370909,25.7394878 41.5961818,21.7178949 L41.5961818,21.7178949 Z M35.7899545,46.2497834 C33.9314091,48.5685474 31.2670909,49.6949023 27.6398182,49.6949023 L24.3942727,49.6949023 L24.3942727,28.8680607 L27.6398182,28.8680607 C31.2679545,28.8680607 33.934,29.9935577 35.7934091,32.3166109 C37.297,34.1798575 38.1243636,36.6547499 38.1243636,39.2814815 C38.1243636,41.9047817 37.297,44.3796741 35.7899545,46.2497834 L35.7899545,46.2497834 Z" id="Fill-3" fill="#FFFFFF" sketch:type="MSShapeGroup"></path>
                <path d="M53.0834091,49.6391422 L64.4592273,49.6391422 L64.4592273,60.9387203 L53.0834091,60.9387203 L53.0834091,49.6391422 Z" id="Fill-4" fill="#FFFFFF" sketch:type="MSShapeGroup"></path>
            </g>
        </g>
    </g>
</svg>